<svg width="415" height="415" viewBox="0 0 415 415" fill="none" xmlns="http://www.w3.org/2000/svg">
<path d="M151.441 2.06671C103.308 9.80004 59.0411 37.5334 31.5744 77.4C17.4411 97.9334 8.77442 117.933 3.17442 142.867C-0.825579 161 -1.09225 197 2.64109 214.467C10.7744 252.6 29.1744 285.4 56.9078 311.133C82.3744 334.867 113.041 350.2 148.108 356.733C163.974 359.667 193.308 359.667 210.108 356.733C236.241 352.2 264.508 340.2 284.774 324.867L296.108 316.333L345.441 365.533C389.574 409.533 395.308 414.733 399.041 414.733C405.174 414.733 409.574 412.333 412.108 407.4C417.041 398.333 417.041 398.333 364.241 345.533L315.708 297L322.774 287.533C349.308 251.933 362.241 207.133 358.241 165.133C352.641 108.733 324.374 60.8667 278.374 30.2C241.174 5.40004 195.041 -4.73329 151.441 2.06671ZM205.974 30.0667C260.108 40.3334 305.708 79.1334 322.508 129.4C342.108 187.8 327.041 248.733 282.908 290.467C254.241 317.667 219.441 331.267 178.774 331.267C159.041 331.267 151.041 330.067 132.908 324.467C84.5078 309.4 45.3078 268.2 31.8411 217.8C28.6411 205.933 28.2411 202.467 28.2411 180.067C28.2411 158.867 28.6411 153.8 31.1744 144.2C46.6411 85.5334 91.4411 42.4667 149.441 30.7334C164.774 27.6667 191.308 27.2667 205.974 30.0667Z" fill="#adadad"/>
<path d="M87.5744 114.2C82.9077 118.067 81.0411 124.867 83.4411 129.533C84.3744 131.267 87.5744 135.267 90.5077 138.333L95.9744 144.067L90.5077 149.667C87.5744 152.867 84.3744 156.867 83.4411 158.6C79.4411 166.333 87.0411 177.4 96.2411 177.4C100.108 177.4 102.374 176.067 108.241 170.467L115.574 163.533L121.174 169C124.241 171.933 128.108 175.133 129.708 175.933C138.641 180.467 148.774 173.533 148.774 162.733C148.774 159.533 147.174 156.867 141.974 151.267L135.041 144.067L141.974 136.867C147.041 131.4 148.774 128.6 148.774 125.533C148.774 119.267 146.508 115 141.974 112.6C135.308 109.267 129.441 110.867 121.974 118.2L115.574 124.6L108.241 117.667C99.5744 109.4 94.2411 108.467 87.5744 114.2Z" fill="#adadad"/>
<path d="M205.041 114.067C197.441 120.467 198.374 128.733 207.841 138.333L213.308 144.067L207.841 149.667C200.774 157 198.908 161.667 200.774 167.4C202.774 173.267 206.241 176.2 212.641 177C217.574 177.667 218.374 177.267 225.308 170.733L232.774 163.667L239.308 169.8C248.908 178.733 255.974 179.667 262.908 172.733C265.308 170.333 266.108 168.067 266.108 163.667C266.108 158.467 265.308 156.867 260.108 151C256.774 147.4 254.108 143.933 254.108 143.533C254.108 143 256.774 139.8 260.108 136.333C265.308 131 266.108 129.4 266.108 124.467C266.108 120.467 265.174 117.8 262.908 115.133C260.108 111.933 258.641 111.4 252.908 111.4C246.641 111.4 245.708 111.8 239.708 117.8L233.308 124.067L228.774 119.267C219.841 110.067 211.841 108.333 205.041 114.067Z" fill="#adadad"/>
<path d="M161.841 215C156.908 215.533 149.574 217.267 145.441 218.867C136.241 222.333 119.708 233.133 114.241 239.4C107.841 246.733 109.041 255.933 117.041 260.6C122.774 264.067 128.241 262.733 138.241 255.133C150.508 245.8 159.441 242.333 170.774 242.2C182.508 242.067 189.708 244.733 205.441 254.867C211.974 259.267 218.774 262.733 220.508 262.733C225.174 262.733 230.774 259.4 232.508 255.4C236.508 246.6 233.041 239.933 219.574 230.867C199.574 217.267 182.508 212.6 161.841 215Z" fill="#adadad"/>
</svg>
