<svg width="1059" height="1022" viewBox="0 0 1059 1022" fill="none" xmlns="http://www.w3.org/2000/svg">
<path d="M325.229 0.826874C314.639 3.05939 303.883 8.26862 286.095 19.5966C284.772 20.4235 283.779 21.333 283.779 21.5811C283.779 22.3253 287.502 22.9041 298.588 24.0616C306.696 24.8058 313.729 26.2115 310.419 26.3769C307.937 26.5422 295.114 36.4646 287.833 43.9063C279.559 52.423 268.473 67.3065 260.531 80.3709C251.843 94.7583 247.955 106.334 245.307 125.352C243.653 137.176 243.653 166.695 245.307 183.15C246.631 196.214 247.045 199.025 249.858 213.744C252.671 228.462 252.671 228.214 251.513 228.214C249.775 228.214 243.074 223.666 239.764 220.193C236.207 216.389 228.264 204.731 225.286 198.612C224.127 196.214 223.052 194.395 222.886 194.56C222.142 195.222 224.293 240.699 225.451 250.125C228.43 275.179 234.138 298.083 242.164 317.515C252.009 341.494 268.969 366.713 285.765 382.671C298.423 394.578 306.862 399.126 329.696 406.319C344.671 411.115 348.974 413.348 352.366 418.061C355.841 422.774 357.247 426.329 359.067 434.681C359.895 438.567 360.722 441.874 360.97 442.04C361.136 442.205 363.618 439.89 366.513 436.831C369.409 433.689 381.488 421.368 393.402 409.296C405.316 397.224 416.485 385.483 418.388 383.25C425.834 374.072 436.01 360.263 436.01 359.271C436.01 358.775 436.755 357.617 437.582 356.873C439.071 355.467 439.154 355.55 439.981 359.436C440.478 361.586 441.471 367.788 442.298 373.08C443.125 378.702 444.201 382.837 444.697 382.837C445.525 382.837 471.172 331.819 474.813 322.641C486.23 294.693 492.518 267.076 496.075 230.281C497.978 210.436 497.978 159.005 496.075 138.251C493.345 108.153 488.629 87.5646 482.259 77.7249C480.521 74.9963 478.701 72.7638 478.287 72.7638C477.543 72.7638 461.989 55.317 446.6 37.2087C441.802 31.5034 437.086 26.1288 436.093 25.3019C435.183 24.3924 434.355 23.2348 434.355 22.5733C434.355 21.9945 433.611 21.4984 432.701 21.4984C430.715 21.4984 430.715 21.6638 432.453 25.0539C435.679 31.338 442.215 62.6761 440.643 64.3298C440.312 64.5779 434.19 59.0379 427.075 51.9269C418.222 43.0795 410.197 35.9684 401.758 29.6843C370.981 6.69757 359.067 1.15762 338.797 0.413452C333.337 0.248077 327.214 0.413452 325.229 0.826874ZM348.891 38.9452C363.204 45.2293 379.254 53.3326 386.783 58.211C395.884 64.1644 402.834 70.1178 424.179 90.2105C434.273 99.7194 442.712 107.492 442.877 107.492C443.125 107.492 443.539 106.004 443.87 104.184C445.028 97.2388 446.269 99.7194 449.744 116.174C459.341 161.734 460.003 166.53 460.003 188.194C460.003 212.917 458.597 227.469 453.798 253.433C448.834 280.389 440.974 314.455 439.32 316.192C438.658 316.853 436.093 309.659 434.769 303.458C433.859 299.076 432.701 297.174 431.791 298.579C431.377 299.241 431.046 300.812 431.046 302.135C431.046 308.584 419.629 333.556 412.017 344.057C407.053 350.754 394.974 363.819 393.65 363.819C391.83 363.819 394.064 346.289 397.125 337.359C399.855 329.339 405.729 317.597 409.287 313.215C411.024 311.148 415.409 306.104 418.967 302.052C432.204 287.251 437.665 274.931 437.665 259.882C437.665 254.839 437.582 254.673 435.597 254.673C434.438 254.673 425.255 256.575 415.244 258.89C405.15 261.123 396.711 262.859 396.463 262.611C396.298 262.363 397.539 260.213 399.359 257.815C403.082 252.937 411.604 237.805 415.409 229.206C421.201 216.472 425.503 201.754 428.233 185.63C430.384 173.393 430.384 144.37 428.233 134.778C423.269 112.122 410.859 91.3681 393.237 76.4019C390.341 73.9214 387.611 72.1023 387.197 72.3503C386.618 72.7638 391.168 82.3553 394.147 86.9858C395.801 89.549 410.114 123.037 412.431 129.9C414.83 136.763 416.154 156.69 414.499 161.569C414.003 163.222 413.258 164.545 413.01 164.545C412.348 164.545 407.467 156.359 403.165 148.008L400.021 141.807L399.773 145.362C399.607 147.347 399.938 151.564 400.352 154.623C402.337 167.026 401.179 197.124 398.366 208.782C395.388 220.772 384.136 238.053 370.402 251.614C365.355 256.492 361.549 260.709 361.797 260.957C362.046 261.288 364.693 260.875 367.589 260.048C370.567 259.221 373.298 258.725 373.794 258.89C374.539 259.221 368.995 267.159 361.88 275.923C360.308 277.825 359.067 279.479 359.067 279.644C359.067 280.223 376.607 278.652 388.355 277.081C406.143 274.6 405.895 274.518 400.683 279.314C390.754 288.244 379.42 303.293 373.298 315.447C366.679 328.843 364.279 337.938 362.377 358.031C361.88 363.24 361.384 367.622 361.218 367.705C361.136 367.87 356.337 366.713 350.711 365.142C338.632 361.752 323.574 355.716 309.923 348.687C298.919 342.982 290.563 335.954 284.11 326.941C277.326 317.432 269.962 299.654 265.66 282.373C263.674 274.352 257.304 241.774 257.304 239.624C257.304 237.888 257.056 237.888 271.286 240.699C278.815 242.27 284.606 242.684 284.606 241.857C284.606 241.526 284.027 240.286 283.365 238.963C281.711 235.738 276.664 215.066 275.092 204.648C274.182 199.191 273.603 187.615 273.272 170.251L272.775 144.205L276.333 132.215C283.531 108.153 288.743 97.1562 300.988 80.7843C312.736 64.9913 323.078 55.6477 339.459 46.1389C341.61 44.8986 343.348 43.2448 343.348 42.5007C343.348 41.7565 342.189 39.6893 340.783 37.9529C339.376 36.2165 338.466 34.7282 338.715 34.7282C338.963 34.7282 343.513 36.6299 348.891 38.9452Z" fill="white"/>
<path d="M634.655 10.4184C625.555 11.7414 612.648 14.9662 605.367 17.6948C593.95 21.9945 578.975 30.5938 567.144 39.5239C555.23 48.6194 534.381 71.11 537.856 71.11C538.849 71.11 544.806 67.7199 550.432 64.0817C553.907 61.6838 554.403 62.5934 551.507 66.3969C544.061 76.4019 532.396 101.125 525.777 121.218C519.82 139.243 509.147 184.225 508.568 193.485C508.237 198.777 508.32 198.777 509.726 196.793C510.554 195.635 513.45 191.666 516.18 187.863C518.993 184.142 521.227 180.669 521.227 180.256C521.227 179.76 521.64 179.429 522.054 179.429C523.129 179.429 523.129 180.421 521.723 184.555C520.565 187.945 513.367 214.074 507.906 234.498C505.59 243.51 505.259 245.743 504.928 260.461C504.349 282.621 505.59 289.732 514.773 315.861C517.09 322.476 519.82 329.587 520.896 331.737C522.054 333.969 522.633 335.705 522.385 335.705C522.054 335.705 520.234 334.3 518.331 332.563C508.816 324.129 506.334 322.31 506.334 323.964C506.334 326.858 508.155 330.992 514.442 342.32C522.55 357.039 528.094 364.811 538.518 375.56C555.479 393.255 569.543 401.441 601.975 412.604C630.519 422.361 679.332 436.583 684.544 436.583C687.109 436.583 687.523 436.334 687.192 435.094C686.944 434.35 686.364 431.291 685.868 428.397C684.958 423.435 685.041 422.939 687.109 418.805C689.591 413.678 695.548 407.89 709.034 397.307C728.642 382.092 748.084 359.602 762.149 335.871C768.685 324.956 781.592 299.654 786.556 288.161C789.534 281.381 795.905 262.528 795.905 260.709C795.905 260.13 795.326 259.634 794.664 259.634C794.002 259.634 793.423 260.213 793.423 260.957C793.423 261.701 792.678 263.272 791.685 264.43C788.541 268.564 779.689 280.719 776.959 284.605C775.552 286.838 773.897 288.574 773.484 288.574C772.987 288.574 772.822 288.326 773.07 287.913C773.566 287.086 781.178 261.784 783.329 253.846C785.397 246.322 789.7 225.898 791.437 215.066C792.513 209.03 792.926 199.108 793.174 174.137C793.588 139.326 793.257 132.298 791.272 132.298C790.527 132.298 790.113 133.125 790.113 134.53C790.113 137.59 783.329 163.636 779.772 174.302C774.807 188.938 769.512 199.935 767.775 198.86C766.865 198.281 765.458 187.036 764.879 175.708C763.638 152.969 760.329 132.132 754.951 113.611C750.07 96.412 744.196 84.1744 734.102 70.1178C729.304 63.2548 709.861 43.1621 700.098 34.8935C692.983 28.7747 693.231 27.9479 702.001 26.873C708.62 26.0461 710.688 25.55 710.688 24.8058C710.688 23.8136 700.098 18.8524 692.487 16.2891C673.21 9.8396 652.94 7.77246 634.655 10.4184ZM656.332 47.0483C657.738 47.5445 657.656 47.7098 655.753 48.6194C651.781 50.4385 651.947 50.6039 668.742 57.8802C694.141 68.9602 712.012 85.6628 722.354 107.905C733.523 132.05 737.412 151.481 741.217 201.093C741.796 208.948 742.293 211.263 743.782 213.247C745.437 215.645 745.933 215.811 750.732 215.811C757.93 215.811 759.171 217.216 758.922 225.237C758.757 235.986 754.951 248.141 748.332 259.221C744.527 265.67 734.102 280.058 731.951 281.877C729.552 283.861 730.379 285.102 734.681 286.011C736.998 286.507 739.48 286.921 740.142 286.921C742.045 286.921 740.224 289.815 734.35 295.933L729.304 301.225L734.268 300.729C736.998 300.399 741.135 299.902 743.534 299.654L747.836 299.076L746.678 303.954C745.189 310.321 740.059 321.318 734.764 329.339C726.325 342.238 712.757 354.393 680.738 377.875C672.548 383.911 665.598 388.459 665.184 388.128C664.523 387.302 661.048 370.186 661.048 367.374C661.048 366.134 661.461 365.721 662.537 365.886C663.281 366.051 665.681 366.465 667.915 366.713C671.389 367.209 671.803 367.457 671.803 369.276C671.803 370.682 672.217 371.261 673.458 371.261C674.699 371.261 677.843 366.63 686.944 351.168C706.469 318.341 712.757 306.517 720.865 287.251C724.836 277.66 727.98 266.745 726.987 265.67C726.739 265.505 723.595 265.753 719.955 266.249C716.314 266.828 712.757 267.076 712.095 266.911C711.019 266.745 711.681 264.347 715.735 253.846C718.465 246.818 721.278 240.203 721.94 239.128C723.098 237.392 723.016 237.309 720.865 237.309C719.541 237.309 716.149 238.053 713.253 238.963C710.275 239.872 707.71 240.451 707.544 240.203C707.379 240.038 708.124 238.632 709.282 237.144C714.246 230.611 717.307 214.405 717.307 195.139C717.307 174.302 714.742 166.034 702.415 147.181C693.893 134.117 672.63 114.024 672.63 119.068C672.63 119.481 673.21 120.143 673.872 120.474C675.94 121.631 688.846 141.641 692.404 149.248C696.706 158.178 701.836 173.806 703.325 181.909C703.904 185.299 704.4 193.155 704.318 199.273C704.318 218.126 699.933 230.942 688.35 246.405C681.566 255.417 675.774 261.536 669.404 266.497C667.005 268.399 665.35 270.053 665.764 270.135C666.591 270.466 682.641 264.678 691.825 260.792C694.472 259.717 696.954 258.807 697.451 258.807C698.526 258.807 689.343 269.887 677.76 282.538C672.217 288.657 670.479 291.055 671.555 291.055C672.465 291.055 679.663 288.988 687.605 286.507C695.465 284.027 702.498 281.96 703.077 281.96C704.649 281.96 704.318 289.649 702.415 297.174C699.188 309.99 693.81 316.274 679.58 324.047C669.652 329.504 658.566 336.532 653.767 340.419C651.781 341.99 650.127 343.23 649.961 343.065C649.879 342.899 648.058 338.269 645.907 332.811C640.612 319.003 639.619 316.688 638.875 316.688C636.476 316.688 631.677 333.804 630.436 346.289C629.609 355.219 630.601 375.726 632.256 383.746C632.753 386.392 633.001 388.873 632.67 389.121C631.181 390.609 591.468 371.426 570.04 358.94C558.457 352.16 553.493 348.439 553.493 346.455C553.493 346.124 555.479 345.545 557.878 345.214C565.407 344.305 565.489 344.222 563.09 341.163C559.864 336.863 550.845 320.326 547.453 312.471C536.119 286.094 534.133 262.859 540.752 234.415C543.565 222.343 553.079 190.095 559.284 171.822C560.691 167.853 561.766 164.297 561.766 163.884C561.766 163.47 558.788 163.718 555.148 164.38C551.425 165.041 548.281 165.372 548.033 165.124C546.957 164.049 560.443 118.737 565.986 104.763C572.274 88.9702 581.126 73.1772 587.249 66.7276C594.364 59.2859 613.062 49.3636 624.065 47.131C628.368 46.3042 654.263 46.2215 656.332 47.0483Z" fill="white"/>
<path d="M874.254 200.762C860.106 210.105 845.628 228.958 832.39 255.5C818.822 282.786 811.293 305.112 806.743 331.488C805.833 336.615 804.923 340.997 804.674 341.245C804.509 341.493 803.847 340.088 803.351 338.186C801.034 329.504 800.041 320.078 799.545 299.985L798.966 278.404L796.98 280.802C792.926 285.928 782.998 310.817 779.11 325.948C776.71 334.879 773.98 349.018 772.739 358.444C770.34 377.379 770.34 411.694 772.739 430.794C777.124 464.778 787.962 498.184 817.002 567.64C828.336 594.844 833.052 608.487 833.714 616.177C833.962 619.319 833.962 621.799 833.714 621.799C833.135 621.799 822.959 609.231 819.649 604.518C818.326 602.616 817.002 601.128 816.588 601.128C815.678 601.128 816.588 604.518 817.912 606.089C818.491 606.833 822.049 613.613 825.689 621.138L832.39 634.946L833.218 645.944C833.631 651.98 834.128 657.354 834.376 657.933C834.542 658.595 836.362 658.347 840.747 657.189C849.516 654.874 865.981 655.535 876.571 658.677C882.776 660.496 886.085 660.91 897.006 661.241C922.323 662.067 936.305 657.85 961.704 641.809C969.564 636.848 973.453 633.706 980.899 626.016C1009.28 596.911 1029.3 561.935 1045.51 513.481C1052.46 492.644 1059.08 466.598 1059 460.396C1058.92 458.66 1058.75 458.66 1056.44 461.388C1055.03 462.959 1049.65 469.574 1044.44 476.024C1039.23 482.473 1034.59 488.013 1034.1 488.344C1033.43 488.757 1033.27 488.013 1033.6 486.111C1033.85 484.54 1035.01 477.512 1036.08 470.484C1039.47 449.481 1040.22 438.071 1040.3 405.989C1040.38 363.736 1038.81 349.927 1027.89 295.189C1023.76 274.766 1021.85 267.076 1020.94 267.076C1020.53 267.076 1019.87 268.895 1019.29 271.128C1017.55 278.321 1014.49 287.251 1013.66 287.582C1013.25 287.665 1012.59 286.755 1012.34 285.515C1010.43 278.156 993.722 244.172 985.449 231.19C978.417 220.276 976.927 216.968 977.258 213.495C977.672 208.865 980.899 207.542 992.151 207.542C997.032 207.542 1001.17 207.211 1001.42 206.798C1002.41 205.227 1000.75 203.325 996.287 201.175C991.571 198.86 991.489 198.86 974.611 198.86C961.787 198.86 955.83 199.273 950.452 200.348C930.679 204.317 908.092 215.149 888.65 230.033C881.617 235.407 878.143 237.144 876.819 235.821C875.247 234.25 875.991 224.741 878.639 212.503C882.362 195.801 882.197 195.47 874.254 200.762ZM951.032 250.043C957.402 253.764 966.751 267.903 973.039 283.2C974.859 287.748 978.913 298.91 982.057 308.006C989.089 328.594 989.172 328.925 991.654 332.15C993.226 334.3 994.384 334.879 996.453 334.879C998.521 334.879 999.348 335.375 1000.09 336.863C1002.66 342.486 1003.82 351.25 1005.64 377.875C1008.04 413.513 1007.13 431.125 1000.67 471.311C997.942 488.261 997.115 497.026 997.859 502.483C998.687 508.519 999.514 509.346 1004.89 509.346C1010.1 509.346 1010.85 510.504 1008.95 515.961C1004.73 527.868 982.388 562.431 968.902 577.893C959.305 588.808 946.316 597.655 930.348 604.187C925.053 606.337 918.351 607.743 918.351 606.668C918.351 606.585 921.495 603.278 925.301 599.309C930.927 593.438 933.078 590.379 936.801 583.185C941.931 573.18 951.445 550.689 953.017 544.736C954.258 540.436 955.582 540.188 955.665 544.322C955.665 545.811 956.161 548.457 956.74 550.276L957.65 553.501L959.47 551.02C962.697 546.555 977.755 505.956 982.802 488.344C989.503 464.944 990.661 455.27 990.661 421.286C990.661 392.676 990.413 388.294 986.856 366.465C985.201 356.129 985.035 355.55 983.215 355.55C982.14 355.55 981.064 355.964 980.816 356.377C980.237 357.369 968.571 365.307 966.751 365.969C965.758 366.382 965.51 365.472 965.51 360.677C965.51 353.979 962.614 344.553 957.071 333.638C952.273 324.047 937.629 302.052 935.643 301.556C934.816 301.308 934.071 300.647 934.071 299.985C934.071 298.91 929.355 296.347 928.611 297.091C928.445 297.256 929.686 300.233 931.506 303.541C936.388 312.636 947.557 337.607 950.121 345.214C953.017 353.566 953.762 368.036 952.355 387.384C951.859 394.661 951.197 404.17 950.949 408.469L950.535 416.324L953.1 413.43C954.506 411.859 960.546 403.673 966.503 395.405C972.377 387.053 977.589 380.521 977.92 380.935C978.748 381.762 977.424 423.435 976.266 434.102C973.122 462.794 968.654 478.504 955.499 507.114C952.686 513.15 950.204 518.359 949.873 518.69C949.542 519.02 947.639 513.232 945.737 505.873C941.186 488.592 941.186 488.427 940.111 488.096C939.614 487.931 939.118 491.569 938.787 498.101C938.208 509.264 935.974 519.682 929.521 541.18C925.053 556.147 923.398 559.619 918.021 565.407C911.236 572.684 894.441 587.319 886.83 592.528C883.189 595.092 877.729 597.82 873.344 599.391C869.207 600.88 865.401 602.451 864.822 602.947C863.333 604.104 863.25 603.608 862.092 589.138C859.941 562.679 858.452 557.966 835.286 507.693C807.487 447.497 805.254 439.807 804.426 402.102C803.93 380.769 804.592 372.583 807.239 363.653L808.48 359.271L810.218 362.578C811.872 365.803 820.89 387.302 824.2 396.066C825.854 400.283 826.02 400.449 826.516 398.464C826.847 397.307 827.426 393.007 827.675 388.955C828.585 378.371 832.804 348.604 834.872 339.178C838.099 324.46 842.567 314.951 853.653 299.158C860.851 288.988 864.657 284.854 866.394 285.432C867.139 285.68 867.718 288.988 868.297 296.843C869.207 308.584 870.2 310.817 872.268 305.773C874.006 301.639 884.099 285.598 888.65 279.81C897.999 267.986 909.913 260.048 931.589 251.283C941.186 247.397 945.902 247.066 951.032 250.043Z" fill="white"/>
<path d="M119.386 262.28C119.634 263.769 120.048 265.588 120.296 266.249C120.709 267.324 119.468 267.49 112.271 267.572C102.342 267.738 97.0474 269.061 79.2595 275.593C65.1947 280.802 65.7738 281.05 68.7523 271.045C69.6623 267.82 70.2415 265.009 69.9933 264.761C68.4213 263.273 50.3025 277.164 40.4571 287.417C34.0038 294.114 29.7016 300.647 26.475 308.419C23.5793 315.447 20.9318 326.031 20.1872 333.804C19.939 337.111 19.3598 339.84 19.0289 339.84C18.6152 339.84 17.0433 337.525 15.3886 334.631C10.7555 326.527 11.0864 326.775 9.59717 330.331C8.85256 332.067 7.19788 338.6 6.0396 344.718C3.97124 355.302 3.80577 357.452 3.80577 379.529C3.72303 412.273 6.70147 434.515 14.8094 462.215C20.3526 481.398 33.5074 508.023 41.6154 516.54C44.7593 519.847 43.2701 520.096 39.547 516.953C38.0578 515.713 34.8312 513.233 32.5146 511.496C30.1153 509.76 28.1297 508.106 28.1297 507.693C28.1297 507.362 25.1512 504.137 21.5937 500.582C14.644 493.719 4.30217 479.166 3.55756 475.197C3.14389 473.047 1.32374 471.393 0.413658 472.303C0.248189 472.468 1.15827 477.429 2.48202 483.3C5.46046 496.365 5.62592 499.837 3.30936 501.078C1.15827 502.235 1.15827 506.452 3.22663 516.375C7.94249 538.369 16.3814 555.651 30.6117 572.684C38.4715 582.027 54.5219 595.588 62.4644 599.722C67.7594 602.368 64.5328 602.285 53.3637 599.474C47.655 598.068 42.6082 596.994 42.0291 597.159C41.5326 597.324 42.6909 598.482 44.7593 599.64C46.7449 600.714 53.9428 605.097 60.727 609.231C74.9573 617.996 75.2883 617.582 55.0184 615.598C36.7341 613.779 37.8096 613.696 38.4715 617.83C39.6298 624.859 51.0471 641.644 60.6443 650.409C73.7163 662.233 104.328 679.432 127.825 688.031C152.314 696.961 164.145 699.359 185.821 699.772L196.742 699.938L196.577 683.814C196.494 665.044 197.321 661.158 204.106 649.168C211.055 636.931 219.577 630.068 232.815 626.016C238.192 624.363 248.948 623.618 250.106 624.859C250.851 625.52 240.012 631.639 238.027 631.722C237.034 631.722 236.62 632.218 236.786 633.127C237.034 634.368 238.11 634.698 242.991 634.864C250.52 635.195 253.995 633.541 261.027 626.43C269.466 617.913 274.678 605.51 277.657 586.823C280.221 570.617 280.47 508.768 277.988 492.396C275.836 477.843 269.797 458.908 262.185 442.453C260.448 438.65 258.959 435.342 258.959 435.177C258.959 434.598 266.156 442.701 270.045 447.662C271.948 449.978 273.768 452.045 274.099 452.21C274.43 452.293 275.671 453.947 276.829 455.683C277.905 457.419 279.146 458.908 279.642 458.908C282.124 458.908 283.034 438.898 280.966 429.141C276.167 406.65 260.779 376.966 239.93 349.762C227.437 333.473 198.066 306.352 175.811 290.559C156.864 277.081 125.839 259.634 120.875 259.634C119.137 259.634 118.972 259.882 119.386 262.28ZM133.616 322.889C148.922 326.114 163.649 334.134 188.469 352.904C202.534 363.488 205.347 365.969 210.394 372.501C224.541 390.692 230.746 402.516 232.566 414.505C233.725 422.112 232.732 424.924 228.512 426.164C223.548 427.57 223.879 431.869 230.498 451.631C240.757 482.308 242.412 491.073 242.412 514.39C242.412 533.987 241.171 543.992 236.455 562.679L232.897 576.735L229.588 578.307C224.707 580.704 220.239 580.539 218.253 577.81C214.861 573.345 216.516 560.281 222.307 545.976C223.879 542.007 225.699 536.054 226.361 532.664C227.602 526.132 227.933 513.811 226.858 513.15C226.527 512.984 224.045 517.036 221.314 522.245C218.584 527.372 216.102 531.672 215.854 531.672C215.606 531.672 215.275 526.71 215.192 520.674C214.944 501.987 213.537 479.745 212.131 473.13C210.145 463.538 204.85 448.076 200.134 438.319C196.08 429.802 182.843 406.981 179.368 402.516C178.375 401.276 177.796 400.035 178.044 399.787C178.293 399.539 183.67 400.614 189.958 402.102C206.67 406.237 206.836 406.319 206.836 404.252C206.836 403.26 205.429 399.87 203.775 396.562C201.293 391.932 198.232 388.211 188.634 378.62C182.016 372.005 174.073 364.646 170.846 362.33C159.098 353.731 128.156 340.336 121.289 340.832L117.896 341.163L123.44 343.809C131.051 347.447 155.044 361.256 162.49 366.217C171.012 372.005 180.03 380.108 182.429 384.242C183.588 386.144 184.498 387.963 184.498 388.294C184.498 388.625 177.217 388.625 168.364 388.377L152.231 387.798L153.638 390.113C154.465 391.353 156.12 393.668 157.278 395.24C163.4 403.095 180.775 435.425 186.897 450.143C195.005 469.574 197.735 482.391 197.735 500.747C197.735 518.276 193.847 542.421 189.379 552.922C188.552 554.906 188.221 556.477 188.634 556.477C189.875 556.477 200.879 553.335 201.872 552.757C203.278 551.93 202.782 554.576 201.293 555.733C199.473 557.304 194.757 567.64 193.185 573.511C192.523 576.157 191.613 581.201 191.116 584.839C190.124 593.19 187.559 598.647 181.767 605.179C179.203 607.991 175.811 612.373 174.156 614.854C168.944 622.709 163.566 636.021 162.573 643.546L162.077 647.515L159.015 646.936C149.749 645.448 136.098 640.983 128.073 637.014C122.695 634.285 103.666 622.13 100.77 619.567C98.2057 617.252 99.1158 616.838 105.9 616.838C113.76 616.838 114.008 616.425 110.037 608.57C106.231 600.962 106.065 601.128 117.069 601.128C128.983 601.128 129.397 600.136 118.889 596.249C106.976 591.867 92.9934 585.748 87.533 582.441C78.7631 577.149 65.3601 563.34 65.3601 559.702C65.3601 558.214 66.1048 558.131 75.2883 558.131C81.0797 558.131 85.2164 557.8 85.2164 557.304C85.2164 555.899 80.2523 550.937 77.7703 549.862C76.4466 549.284 75.1228 548.209 74.8746 547.465C74.6264 546.72 72.6408 544.819 70.4897 543.248C64.5328 538.865 59.5687 534.648 59.5687 534.069C59.5687 532.416 66.1048 531.754 86.4574 531.341C107.803 531.01 113.346 530.597 113.346 529.191C113.346 528.86 111.195 527.289 108.63 525.635C92.7452 515.879 77.4394 502.07 67.1803 488.344C54.0255 470.649 48.3996 454.443 46.3312 427.983C45.4212 416.242 45.173 375.147 46.083 374.32C46.3312 373.989 48.3169 375.064 50.468 376.552L54.4392 379.364L53.9428 365.555C53.6119 352.822 53.6946 351.251 55.432 345.959C57.1694 340.501 61.8853 331.571 62.9609 331.571C63.7055 331.571 64.5328 338.269 64.5328 343.643C64.5328 348.77 65.4429 349.349 66.8494 345.297C68.9177 339.674 78.3494 328.677 83.9754 325.37C86.8711 323.633 91.5042 322.476 99.6949 321.318C105.073 320.574 127.245 321.566 133.616 322.889Z" fill="white"/>
<path d="M462.899 434.598C461.575 434.763 457.438 435.342 453.798 435.838C450.158 436.335 441.636 437.823 434.769 439.146C415.409 442.949 413.755 443.859 422.442 445.761C424.924 446.34 426.661 447.001 426.33 447.332C425.999 447.662 421.945 448.903 417.395 450.226C394.726 456.51 379.172 466.019 359.481 485.781C346.657 498.514 340.121 507.362 334.164 519.682C326.553 535.475 321.671 552.26 314.391 587.071C308.682 614.44 301.401 639.742 298.919 640.569C298.34 640.817 297.844 639.246 297.513 636.352C297.265 633.789 296.768 629.655 296.52 627.174C296.272 624.693 295.775 622.626 295.444 622.626C295.114 622.626 294.369 624.445 293.873 626.595C292.714 631.804 285.682 643.959 280.221 650.491C274.099 657.685 267.315 663.473 242.412 682.904C216.019 703.411 199.721 719.038 190.951 732.185C180.94 747.151 172.584 766.417 169.026 782.458C166.793 792.794 166.958 817.6 169.523 829.341C175.314 856.545 190.785 886.147 208.491 903.842C217.26 912.689 220.818 914.839 235.876 920.379C249.858 925.505 257.635 929.64 271.203 939.314C275.175 942.043 277.326 942.621 275.34 940.306C274.678 939.562 272.362 935.758 270.128 931.872C261.937 917.402 262.268 918.642 267.067 921.04C268.721 921.867 277.657 925.009 286.923 928.069L303.635 933.526L313.812 933.443L323.905 933.361L318.114 931.541C314.97 930.467 308.434 927.821 303.635 925.505C295.693 921.784 294.865 921.123 293.873 918.312C293.211 916.575 292.962 915.004 293.211 914.756C293.955 914.012 328.29 926.828 336.977 931.045C348.643 936.833 357.33 942.952 370.319 954.694C407.219 988.016 445.276 1012.08 472 1019.11C486.395 1022.83 513.036 1022.83 531.568 1019.11C540.421 1017.37 553.824 1013.24 558.623 1010.75C562.925 1008.6 569.213 1002.98 569.213 1001.33C569.213 999.923 565.241 1000.75 557.712 1003.81C553.41 1005.55 549.191 1006.54 543.648 1007.12C536.202 1007.86 517.669 1008.69 518.083 1008.36C518.248 1008.19 525.032 1005.21 533.223 1001.74C568.468 986.528 575.5 982.559 614.386 956.017C626.961 947.5 637.634 941.298 660.055 929.392C675.113 921.454 692.487 913.268 692.487 914.177C692.487 914.425 691.908 915.748 691.08 917.237C688.598 922.033 683.386 938.735 682.145 945.846C681.483 949.65 680.904 957.257 680.904 962.714V972.719L684.048 967.51C693.066 952.626 716.066 936.503 739.232 928.978C748.332 926.001 761.156 923.273 782.585 919.883C803.268 916.575 813.858 912.689 827.178 903.511C834.376 898.55 836.445 896.152 840.25 888.627C845.214 878.953 846.455 872.338 846.952 854.478C847.366 841.91 847.117 836.949 846.042 830.086C845.214 825.373 844.47 820.825 844.222 819.998C843.808 818.675 844.139 818.675 848.193 820.329C850.592 821.238 853.074 822.396 853.571 822.892C855.639 824.546 854.729 818.675 851.668 811.068C847.862 801.228 848.11 799.823 852.991 804.122C855.06 805.941 858.7 809.083 861.182 811.068L865.65 814.789L865.153 799.492C864.657 783.368 864.161 780.391 858.617 762.779C849.599 733.756 840.995 718.707 802.275 663.969C794.995 653.716 788.955 644.952 788.707 644.455C788.541 643.959 791.933 643.215 798.139 642.554C803.516 642.057 808.232 641.231 808.563 640.9C808.977 640.486 807.818 639.329 806.081 638.337C800.372 634.864 790.031 623.784 784.074 614.771C780.847 609.81 774.477 594.43 767.775 575.082C757.185 544.736 748.498 524.809 739.894 511.413C726.904 491.321 708.62 479.579 680.077 473.047C669.487 470.649 662.123 469.657 645.659 468.499C637.386 467.921 630.271 467.176 629.691 466.846C629.195 466.515 629.03 465.357 629.278 464.365C629.691 462.629 629.36 462.381 626.547 461.967C624.81 461.802 618.026 461.967 611.407 462.463C604.788 462.877 585.511 463.29 568.551 463.373L537.608 463.456L535.622 461.14C532.479 457.419 533.802 456.096 544.64 452.128C551.011 449.812 550.101 449.399 523.709 442.784C513.946 440.303 501.619 437.492 496.406 436.583C487.471 434.929 468.359 433.771 462.899 434.598ZM486.975 495.62C490.698 496.282 495.083 497.357 496.737 498.101C499.633 499.341 499.716 499.424 499.716 504.054C499.716 508.602 499.881 508.933 503.356 512.323C507.079 515.879 515.601 520.344 523.295 522.824C533.14 526.049 550.846 526.628 585.428 524.974C598.914 524.312 604.375 524.312 605.037 524.974C605.698 525.635 605.45 526.876 604.126 529.604C601.893 534.318 601.893 534.318 614.965 530.018C627.54 525.884 637.22 524.23 649.465 524.23C671.72 524.23 681.897 528.529 697.947 544.488C710.937 557.304 714.825 565.242 723.099 595.34C728.228 614.027 730.958 622.626 733.523 627.753C736.088 632.879 736.005 633.872 732.861 635.525C728.063 638.006 727.732 640.238 731.289 647.267C735.757 656.114 752.386 678.026 763.721 689.933C778.613 705.726 790.279 723.503 797.063 740.619C800.207 748.474 804.757 764.846 805.171 769.807L805.419 772.701L797.808 773.611C784.57 775.265 785.067 774.521 791.933 782.624C795.16 786.51 798.139 789.652 798.552 789.652C798.883 789.652 799.214 789.983 799.214 790.479C799.214 790.975 796.567 791.306 792.926 791.306C789.534 791.306 786.887 791.637 787.135 791.967C787.383 792.381 788.872 798.582 790.527 805.859C797.311 835.626 794.746 854.643 782.419 866.385C776.876 871.511 771.084 874.488 757.847 878.788C744.03 883.335 740.555 883.832 720.451 884.493C704.401 884.989 703.242 884.907 703.242 883.584C703.242 882.757 706.634 877.382 710.854 871.677C722.354 855.801 723.099 854.726 722.768 854.23C722.602 853.982 717.059 853.982 710.523 854.23C691.163 855.057 671.141 860.679 650.292 871.098C645.08 873.661 638.296 877.299 635.235 879.036C632.256 880.855 629.36 882.261 628.864 882.261C626.713 882.261 628.285 856.959 630.932 847.698C632.587 841.744 637.634 831.326 639.868 829.176C642.35 826.695 660.386 818.262 667.501 816.194C670.728 815.202 676.519 814.045 680.325 813.631C689.26 812.556 707.131 813.466 708.703 815.037C709.53 815.946 709.861 818.51 709.861 824.876C709.861 829.59 710.027 833.476 710.275 833.476C711.847 833.476 720.699 828.184 722.106 826.53C722.933 825.373 724.505 821.817 725.581 818.592C727.814 811.564 727.566 805.28 724.588 797.094C722.437 791.306 714.908 779.482 712.343 777.828C711.433 777.332 710.688 776.422 710.688 775.844C710.688 775.265 710.192 774.769 709.613 774.769C708.951 774.769 707.793 774.024 706.965 773.115C705.476 771.461 705.559 771.461 708.289 771.461C709.861 771.544 713.915 771.875 717.307 772.288C720.699 772.619 723.678 772.784 723.926 772.619C724.091 772.371 718.052 766.087 710.357 758.562C702.746 751.12 696.872 745.002 697.285 745.002C697.699 745.002 703.821 747.234 710.771 749.88C745.933 763.358 752.304 765.756 752.635 765.425C753.214 764.846 749.656 756.66 744.444 746.407C739.894 737.477 738.984 736.32 734.35 732.929C719.872 722.263 709.365 715.896 677.346 698.532C654.677 686.295 642.929 679.432 635.648 674.222C624.727 666.45 617.364 655.122 615.627 643.546C614.551 636.766 614.386 625.355 615.378 624.859C615.709 624.693 619.35 625.19 623.404 626.016C635.566 628.414 637.634 627.835 630.85 623.784C625.886 620.89 615.461 609.479 612.069 603.195C609.421 598.317 609.339 597.986 609.421 588.312C609.421 579.96 609.752 577.728 611.242 574.338C613.393 569.624 613.393 569.707 611.903 569.707C610.497 569.707 605.864 574.834 604.54 577.893C604.044 579.133 603.465 587.154 603.216 596.249C602.803 609.975 602.472 612.787 601.313 614.11C597.011 618.905 597.425 645.034 601.975 657.272C609.008 675.876 629.609 695.39 663.943 715.731C668.494 718.459 673.21 721.188 674.533 721.767C678.587 723.834 678.174 723.999 661.296 726.893C652.94 728.299 652.609 728.63 656.166 732.351C657.821 734.087 661.958 739.048 665.35 743.348C668.742 747.648 672.134 751.699 672.879 752.361C673.623 752.94 674.285 753.766 674.285 754.097C674.285 754.428 670.645 754.924 666.26 755.255C661.792 755.585 656.746 756.082 655.091 756.33L652.03 756.743L654.677 758.645C659.31 761.87 675.361 773.032 679.663 776.092C681.98 777.663 684.379 779.316 685.041 779.73C685.703 780.143 686.034 780.639 685.868 780.805C685.62 781.053 678.918 782.045 670.976 783.037C644.666 786.262 628.699 790.562 611.738 798.83C585.925 811.399 562.263 833.889 555.892 851.997C551.59 864.4 552.087 879.615 557.216 889.785C560.856 897.061 575.169 912.524 581.374 915.996C582.036 916.41 582.45 917.154 582.119 917.65C581.871 918.064 577.403 921.288 572.356 924.679C561.353 931.955 539.428 943.366 526.853 948.244C517.338 951.965 493.097 959.159 490.036 959.159C485.982 959.159 488.381 960.647 493.345 961.226C497.73 961.722 502.115 962.549 511.298 964.616C513.284 965.029 513.284 965.112 511.712 966.022C509.065 967.51 481.597 967.096 474.647 965.443C463.478 962.797 461.327 961.226 420.208 926.001C407.632 915.252 393.898 903.676 389.596 900.286C364.031 879.945 336.233 865.062 301.319 852.99C293.873 850.426 287.667 848.359 287.419 848.359C287.254 848.359 287.088 850.757 287.088 853.734C287.088 856.711 286.757 859.108 286.344 859.108C286.013 859.108 281.711 857.207 276.829 854.974C271.948 852.659 267.646 851.005 267.232 851.253C266.901 851.501 265.908 853.486 265.081 855.801C264.005 858.695 263.178 859.935 262.103 859.935C258.297 859.935 249.361 846.457 246.962 836.949C243.818 824.794 244.066 794.365 247.459 780.557C249.858 770.552 256.477 757.322 266.487 742.521C276.498 727.72 284.606 719.038 295.941 711.183C301.65 707.297 305.042 704.155 309.178 699.028L314.804 692.083L315.549 697.871C315.963 701.013 316.624 703.659 317.121 703.659C320.017 703.659 331.434 686.129 336.067 674.388C339.294 666.285 345.582 647.432 350.711 630.481C372.387 558.627 377.848 545.067 391.168 530.762C402.751 518.194 424.676 508.437 453.384 503.145C468.277 500.416 467.78 500.582 467.036 498.763C465.215 494.38 465.05 494.463 472.91 494.463C476.964 494.463 483.334 494.959 486.975 495.62Z" fill="white"/>
</svg>
