<svg width="1001" height="1024" viewBox="0 0 1001 1024" fill="none" xmlns="http://www.w3.org/2000/svg">
<g clip-path="url(#clip0_1_3)">
<path d="M604.438 33.1472C597.613 37.3127 591.671 39.8294 587.284 40.3937C585.107 40.6738 582.996 40.5146 581.361 39.4917C579.582 38.3785 578.788 36.5205 578.788 34.4C578.788 34.3297 578.786 34.2623 578.784 34.1981C578.759 34.2029 578.735 34.2079 578.71 34.2129C577.937 34.3697 576.909 34.5999 575.685 34.889C573.24 35.4664 570.061 36.2671 566.675 37.1546C559.89 38.9333 552.35 41.0407 548.256 42.3808L548.249 42.3832C526.192 49.5084 510.001 58.6552 495.547 72.0281L495.546 72.0287C483.264 83.382 474.687 96.5703 472.011 108.052C469.303 119.73 471.803 130.77 483.458 155.793C483.458 155.794 483.459 155.795 483.459 155.796L483.537 155.96C488.899 167.37 491.688 173.306 493.835 180.336C495.983 187.372 497.483 195.486 500.389 211.315C502.72 223.732 506.012 232.378 511.116 238.727C516.192 245.041 523.228 249.288 533.463 252.575C536.594 253.567 538.717 254.15 540.845 254.496C542.967 254.841 545.162 254.96 548.433 254.96H548.441L548.448 254.96C558.488 255.038 566.842 252.767 573.301 248.483C579.743 244.211 584.434 237.849 587.026 229.488L587.026 229.487C589.433 221.729 589.278 209.204 586.074 184.255L586.074 184.252C584.671 173.216 583.648 162.372 583.155 154.271C582.91 150.228 582.794 146.831 582.834 144.423C582.853 143.233 582.912 142.208 583.031 141.445C583.087 141.083 583.177 140.648 583.345 140.255C583.428 140.061 583.582 139.753 583.861 139.467C584.164 139.155 584.694 138.8 585.421 138.8C586.46 138.8 587.139 139.425 587.483 139.921C587.807 140.388 587.979 140.917 588.084 141.349C588.3 142.24 588.38 143.387 588.38 144.64C588.38 149.332 589.385 157.307 592.752 179.703C597.634 212.003 598.077 224.2 594.653 241.586L594.652 241.594C591.617 256.708 585.506 267.883 574.49 278.256C568.818 283.611 563.789 287.366 558.647 289.772C553.473 292.193 548.284 293.2 542.361 293.2C525.148 293.2 508.693 282.46 500.005 265.805L500.005 265.805L500 265.795C495.868 257.768 493.27 248.734 490.146 232.048L490.146 232.048L490.144 232.036C487.221 215.901 485.516 210.521 476.276 187.546L476.275 187.544C472.207 177.399 467.864 166.049 466.639 162.207L466.637 162.2L466.634 162.192C458.521 136.03 459.703 104.875 469.923 82.6058L469.923 82.6046C482.791 54.6177 514.403 31.9841 551.203 23.9659L551.206 23.9651C555.468 23.0446 562.569 22.4013 570.682 22.2404L570.684 22.2404L582.516 22.0168L586.169 17.9445L586.184 17.9287L586.198 17.9131C588.655 15.2889 592.447 11.8916 594.776 10.3366L594.797 10.3224L594.819 10.3088C602.424 5.50754 616.824 0.224335 627.196 -1.4931L627.242 -1.50076L627.288 -1.50626C628.108 -1.60284 630.87 -1.66031 634.492 -1.67996C638.191 -1.70004 642.959 -1.67993 647.926 -1.59973L647.927 -1.5997C667.295 -1.2778 683.873 0.494171 701.494 4.03931L701.496 4.03983C737.57 11.3459 768.579 31.6439 792.572 63.5172L792.576 63.523L792.58 63.5289C793.611 64.9185 794.384 66.1725 794.887 67.2179C795.138 67.738 795.342 68.2473 795.471 68.7236C795.584 69.1387 795.712 69.7795 795.559 70.4412C795.474 70.8078 795.278 71.2808 794.846 71.6719C794.396 72.0792 793.863 72.2405 793.399 72.2623C792.607 72.2995 791.947 71.9441 791.585 71.72C790.754 71.2065 789.794 70.2874 788.741 69.0669C761.929 38.0999 734.802 22.7202 699.912 18.7069L699.912 18.7068C694.484 18.0812 683.362 17.74 672.705 17.72C667.395 17.7101 662.236 17.7799 658.005 17.9312C653.715 18.0847 650.533 18.3182 649.076 18.6029C630.123 22.3513 612.915 27.9771 604.438 33.1472ZM604.438 33.1472L603.396 31.44M604.438 33.1472C604.438 33.1473 604.438 33.1474 604.438 33.1475L603.396 31.44M603.396 31.44C589.895 39.68 580.788 40.8 580.788 34.4C580.788 33.04 580.388 32 579.909 32C577.992 32 555.942 37.76 547.634 40.48L603.396 31.44Z" fill="#111010" stroke="#111010" stroke-width="4"/>
<path d="M901.539 104.72C901.64 104.888 901.67 105.085 901.635 105.28C901.59 105.536 901.434 105.789 901.18 105.972C901.163 105.976 901.146 105.98 901.13 105.984L900.707 105.28L900.696 105.261L901.539 104.72ZM901.539 104.72L900.68 105.235L900.371 104.721C900.409 104.422 900.481 104.216 900.581 104.107C900.702 104.084 900.834 104.074 900.977 104.083C901.14 104.182 901.329 104.393 901.539 104.72ZM894.629 92C894.629 92.0811 894.628 92.162 894.626 92.242C894.454 92.2682 894.281 92.2714 894.111 92.2523C894.11 92.1711 894.11 92.087 894.11 92C894.11 91.9021 894.11 91.8078 894.111 91.7173C894.273 91.6997 894.445 91.7015 894.625 91.7302C894.628 91.82 894.629 91.9102 894.629 92ZM801.217 90.559L801.216 90.559C780.716 89.9047 766.14 84.3 750.692 71.1233C748.302 69.0943 746.522 67.2368 745.597 65.5349C745.125 64.6659 744.793 63.688 744.846 62.6575C744.9 61.5949 745.354 60.6859 746.067 59.978C746.618 59.3903 747.316 59.3133 747.539 59.2968C747.873 59.2719 748.178 59.3156 748.386 59.3551C748.822 59.4379 749.303 59.5966 749.763 59.7742C750.704 60.1375 751.869 60.7023 753.046 61.3755C758.617 64.4367 772.611 70.4522 778.699 72.3282C793.43 76.8552 809.316 77.4281 828.088 74.1114C844.245 71.2136 856.748 70.3846 867.386 71.45L867.397 71.451L867.408 71.4523C871.824 71.9436 876.809 72.8817 881.331 74.0317C885.82 75.1732 889.995 76.5587 892.722 77.9889C893.439 78.3621 893.698 78.4387 893.763 78.4531C893.796 78.4427 893.882 78.411 894.04 78.3234C894.305 78.1776 894.653 77.9463 895.194 77.5651L895.203 77.5589L895.212 77.5527C896.605 76.5941 899.029 75.2575 900.717 74.4966L900.747 74.4831L900.778 74.4707C903.311 73.4276 905.82 73.3092 908.121 74.1742C910.393 75.0283 912.239 76.757 913.65 79.0084C916.441 83.4654 917.767 90.3345 917.357 98.5002L917.357 98.5088C917.112 103.013 916.59 106.306 914.81 109.749C913.076 113.101 910.211 116.465 905.628 121.295C900.883 126.324 898.121 129.839 896.111 134.137C894.08 138.479 892.758 143.739 891.121 152.372L891.12 152.383C887.9 168.907 885.038 177.11 878.927 186.455L878.92 186.465C873.239 195.04 859.548 208.638 847.859 217.438L847.858 217.439C795.57 256.75 731.223 270.05 685.218 250.48L685.201 250.473L685.184 250.466C684.271 250.057 683.475 249.7 682.854 249.357C682.235 249.015 681.576 248.576 681.089 247.908C680.565 247.189 680.391 246.419 680.343 245.703C680.299 245.049 680.354 244.293 680.411 243.532C680.411 243.532 680.411 243.531 680.411 243.531L680.651 240.254L680.784 238.43L682.613 238.4L712.567 237.92C712.568 237.92 712.569 237.92 712.57 237.92C743.537 237.361 754.32 236.482 769.619 233.165L769.621 233.165C796.673 227.32 828.428 211.478 853.146 191.486C863.618 182.985 870.28 176.2 875.047 168.215C879.818 160.223 882.779 150.882 885.599 137.119L885.6 137.115C886.962 130.537 888.982 122.662 890.071 119.642L890.075 119.63L890.08 119.619C891.069 116.975 891.425 115.881 891.497 114.997C891.562 114.206 891.408 113.5 890.834 111.529C889.943 108.575 889.553 103.511 889.553 97.2V88.9394L885.24 87.6798L885.233 87.6775C871.388 83.5725 859.385 83.6627 828.993 88.4556L828.988 88.4563C815.005 90.6291 811.601 90.884 801.217 90.559ZM893.781 78.4562C893.781 78.4561 893.779 78.4557 893.775 78.4556C893.779 78.4562 893.781 78.4563 893.781 78.4562ZM900.653 106.016C900.798 106.028 900.958 106.021 901.129 105.984L900.661 105.283L900.355 105.48C900.393 105.739 900.505 105.925 900.653 106.016ZM900.605 105.28L900.643 105.257L900.359 104.831C900.347 104.965 900.341 105.114 900.341 105.28C900.341 105.333 900.344 105.384 900.349 105.433L900.605 105.28Z" fill="#111010" stroke="#111010" stroke-width="4"/>
<path d="M684.682 89.6642L684.682 89.6642C689.244 85.6667 694.226 84.1561 707.311 83.759L684.682 89.6642ZM684.682 89.6642L684.679 89.6672M684.682 89.6642L684.679 89.6672M684.679 89.6672C684.063 90.204 683.545 90.6489 683.124 90.9766C682.782 91.2432 682.243 91.6496 681.648 91.8268C681.303 91.9296 680.667 92.0381 679.988 91.712C679.297 91.3799 678.986 90.8027 678.854 90.4555C678.727 90.1192 678.688 89.7981 678.671 89.6003C678.652 89.3821 678.648 89.1577 678.648 88.9599C678.648 87.3398 679.612 85.9147 680.627 84.8378C681.704 83.6958 683.164 82.6015 684.806 81.6222C688.089 79.6646 692.394 77.9929 696.61 77.3082C699.039 76.8772 705.09 76.5597 710.015 76.4802V76.4802M684.679 89.6672L710.015 76.4802M710.015 76.4802L710.028 76.48M710.015 76.4802L710.028 76.48M710.028 76.48C714.082 76.441 716.541 76.4312 717.949 76.6546C718.63 76.7625 719.568 76.9867 720.245 77.731C720.979 78.5392 720.994 79.5045 720.994 79.9199C720.994 80.4772 720.902 81.4898 719.972 82.2693M710.028 76.48L719.972 82.2693M719.972 82.2693C719.264 82.8623 718.322 83.0766 717.51 83.2053M719.972 82.2693L717.51 83.2053M717.51 83.2053C715.773 83.4805 712.675 83.601 707.311 83.759L717.51 83.2053ZM682.658 89.274C682.658 89.2738 682.657 89.2692 682.656 89.2607C682.657 89.2699 682.658 89.2741 682.658 89.274ZM680.323 88.0659C680.323 88.066 680.326 88.0644 680.332 88.0607C680.326 88.0639 680.323 88.0657 680.323 88.0659Z" fill="#111010" stroke="#111010" stroke-width="4"/>
<path d="M698.554 100.406C713.325 99.304 720.831 97.1341 731.118 90.8627C732.464 90.0054 733.754 89.2464 734.761 88.6955C735.264 88.4203 735.715 88.1868 736.077 88.0166C736.255 87.9329 736.437 87.8519 736.608 87.7875C736.692 87.7557 736.799 87.718 736.917 87.6858C737 87.6629 737.236 87.6 737.529 87.6C738.284 87.6 738.809 87.9793 739.076 88.2355C739.343 88.4917 739.514 88.7718 739.617 88.9651C739.827 89.3596 739.974 89.8139 740.083 90.2193C740.309 91.0608 740.485 92.1438 740.606 93.2666C740.842 95.4672 740.907 98.2366 740.532 100.135C740.003 103.007 737.663 106.039 734.734 108.716C731.712 111.479 727.733 114.163 723.384 116.279L723.376 116.283C720.373 117.726 718.293 118.638 716.154 119.22C714.004 119.805 711.879 120.034 708.82 120.236L708.81 120.236L708.8 120.237C704.367 120.484 700.706 120.248 697.474 119.323C694.207 118.388 691.487 116.781 688.896 114.446L688.886 114.437L688.876 114.427C687.094 112.778 685.722 110.833 684.985 108.933C684.289 107.139 683.991 104.889 685.226 103.114C685.597 102.565 686.128 102.299 686.349 102.194C686.661 102.045 687.008 101.93 687.344 101.836C688.023 101.645 688.906 101.473 689.939 101.313C692.021 100.992 694.935 100.687 698.548 100.406L698.554 100.406Z" fill="#111010" stroke="#111010" stroke-width="4"/>
<path d="M801.976 151.905L801.991 151.895L802.007 151.886C802.595 151.532 803.113 151.225 803.54 151.002C803.91 150.809 804.476 150.532 805.094 150.47C805.455 150.434 805.909 150.461 806.374 150.672C806.843 150.884 807.163 151.21 807.372 151.509C807.714 151.999 807.859 152.579 807.93 152.864L807.933 152.876L807.945 152.922L807.954 152.968C808.276 154.578 807.515 156.3 805.983 156.958L805.906 156.991L805.835 157.015C805.835 157.014 805.836 157.014 805.836 157.014C805.836 157.015 805.768 157.043 805.62 157.136C805.458 157.237 805.254 157.381 805.015 157.569C804.536 157.945 803.984 158.442 803.443 158.983C802.903 159.525 802.401 160.083 802.013 160.576C801.82 160.822 801.667 161.036 801.556 161.211C801.5 161.298 801.461 161.367 801.433 161.42C801.41 161.464 801.4 161.487 801.399 161.491L801.395 161.501C801.205 162.007 800.871 162.632 800.288 163.078C799.981 163.313 799.531 163.552 798.959 163.594C798.352 163.638 797.796 163.445 797.362 163.119L797.278 163.056L797.201 162.985C796.564 162.392 796.377 161.638 796.335 161.1C796.294 160.56 796.378 160.031 796.491 159.582C796.718 158.676 797.164 157.694 797.684 156.781C798.696 155.001 800.295 152.957 801.976 151.905ZM797.626 160.151C797.626 160.151 797.629 160.146 797.635 160.133C797.628 160.144 797.625 160.151 797.626 160.151Z" fill="#111010" stroke="#111010" stroke-width="4"/>
<path d="M817.654 164.48C817.654 163.96 817.703 163.209 818.176 162.439C818.61 161.732 819.264 161.232 819.949 160.813C821.287 159.996 823.657 158.969 827.656 157.281C827.946 157.155 828.227 157.034 828.498 156.917C830.111 156.219 831.381 155.671 832.365 155.265C833.473 154.808 834.379 154.463 835.072 154.314C835.41 154.242 835.917 154.164 836.46 154.277C837.135 154.418 837.727 154.827 838.079 155.466C838.355 155.966 838.4 156.469 838.416 156.703C838.432 156.924 838.431 157.176 838.43 157.356C838.43 157.386 838.43 157.414 838.43 157.44C838.43 158.333 838.038 159.059 837.594 159.597C837.161 160.122 836.586 160.586 835.956 161.014C834.695 161.871 832.811 162.848 830.253 164.049C826.577 165.79 823.946 166.911 822.193 167.318C821.386 167.505 820.287 167.668 819.305 167.222C818.733 166.963 818.271 166.528 817.983 165.959C817.717 165.433 817.654 164.901 817.654 164.48Z" fill="#111010" stroke="#111010" stroke-width="4"/>
<path d="M775.281 158.007L775.292 157.995L775.303 157.984C775.689 157.576 776.047 157.214 776.367 156.934C776.62 156.714 777.105 156.305 777.729 156.132C778.106 156.028 778.641 155.98 779.209 156.213C779.769 156.443 780.106 156.843 780.293 157.15C780.582 157.624 780.677 158.157 780.721 158.449C780.897 159.342 780.656 160.204 780.431 160.785C780.171 161.455 779.788 162.114 779.367 162.689C778.948 163.263 778.439 163.826 777.885 164.268C777.405 164.65 776.574 165.2 775.555 165.2C775.158 165.2 774.674 165.124 774.202 164.858C773.706 164.577 773.348 164.153 773.14 163.67C772.771 162.807 772.949 161.946 773.105 161.439C773.449 160.329 774.265 159.113 775.281 158.007ZM776.91 162.689C776.911 162.689 776.914 162.677 776.917 162.655C776.911 162.679 776.909 162.689 776.91 162.689Z" fill="#111010" stroke="#111010" stroke-width="4"/>
<path d="M788.073 172.167C786.812 172.521 785.664 172.686 784.702 172.622C784.221 172.59 783.697 172.495 783.206 172.269C782.711 172.042 782.132 171.62 781.814 170.896C781.138 169.36 782.157 168.075 782.7 167.541C783.382 166.872 784.363 166.279 785.537 165.768C786.392 165.39 787.123 165.08 787.722 164.872C788.246 164.691 788.991 164.466 789.74 164.554C790.182 164.606 790.678 164.772 791.114 165.146C791.538 165.508 791.761 165.944 791.882 166.295C792.091 166.901 792.095 167.578 792.095 168C792.095 169.121 791.628 170.098 790.799 170.83C790.052 171.489 789.079 171.892 788.073 172.167Z" fill="#111010" stroke="#111010" stroke-width="4"/>
<path d="M801.759 182C800.681 182 799.778 181.482 799.206 180.702C798.674 179.974 798.48 179.107 798.48 178.32C798.48 177.555 798.66 176.698 799.231 176.006C799.854 175.251 800.785 174.9 801.721 175.029C803.431 175.264 804.395 176.83 804.679 178.248C804.835 179.031 804.769 179.971 804.2 180.775C803.602 181.621 802.669 182 801.759 182Z" fill="#111010" stroke="#111010" stroke-width="4"/>
<path d="M265.928 504.322L265.923 504.328C261.748 509.393 252.626 520.932 245.669 529.981C221.335 561.459 210.471 573.756 193.179 589.564C176.145 605.1 160.102 621 152.357 629.886L152.355 629.889C114.202 673.83 95.0952 726.603 87.9621 806.622L87.962 806.624C85.4795 834.691 85.466 847.19 87.976 864.054L87.9785 864.071L87.9813 864.088C87.9911 864.147 88.0003 864.205 88.0092 864.262C87.7158 864.102 87.398 863.924 87.0567 863.729C85.1915 862.662 82.7393 861.136 79.9748 859.327C74.449 855.71 67.7597 851.019 62.172 846.733C34.9098 825.757 24.3305 815.127 18.5696 803.514C8.82019 783.755 8.70252 756.821 18.8387 725.577L18.8407 725.571C24.4134 708.201 30.8127 697.049 49.535 671.997C60.7771 656.974 68.1362 645.996 73.3923 635.377C78.6635 624.728 81.7836 614.515 84.6408 601.055L84.6417 601.051C89.65 577.188 89.498 544.085 84.2287 522.329L84.2269 522.322C79.8577 504.573 66.0138 486.003 49.1728 475.197C45.7921 473.02 42.4238 470.629 41.6899 469.961C40.3637 468.754 38.356 468.169 36.7228 468.019C35.8705 467.94 34.9698 467.963 34.1512 468.153C33.4111 468.325 32.386 468.716 31.7472 469.664C31.1529 470.497 30.7572 471.459 30.7156 472.577C30.6747 473.678 30.9841 474.751 31.4938 475.803C32.4802 477.837 34.4574 480.255 37.3645 483.366L37.3732 483.375C53.184 500.079 62.1996 514.552 68.404 533.192C76.1774 556.624 75.5906 575.288 66.571 594.676L66.5699 594.679C62.51 603.435 56.0696 613.453 41.8568 632.483L41.852 632.49C24.153 656.389 18.354 666.084 12.1067 682.821L12.105 682.825C2.81567 707.901 -2.88605 746.646 -1.67899 776.877C-1.03554 794.268 1.45966 805.492 6.93112 814.179C7.73732 815.481 9.72074 817.766 12.2576 820.489C14.8581 823.279 18.1936 826.69 21.8401 830.301C29.1294 837.52 37.7138 845.596 44.2329 851.197L44.2331 851.197C62.7993 867.145 74.6891 874.704 86.6851 877.623L86.6863 877.624L90.8131 878.625L91.8598 882.448L91.8618 882.456L91.8639 882.463C93.8506 889.509 99.4675 901.14 104.589 908.792L104.593 908.799C112.797 920.956 127.772 933.731 142.416 941.144L142.424 941.148C144.576 942.226 149.173 944.211 153.315 945.91C155.397 946.764 157.392 947.557 158.939 948.139C159.71 948.43 160.387 948.674 160.915 948.848C161.177 948.934 161.423 949.011 161.638 949.068L161.643 949.069C161.785 949.107 162.135 949.2 162.493 949.2C163.31 949.2 163.838 948.748 164.056 948.521C164.291 948.276 164.436 948.018 164.519 947.855C164.69 947.516 164.81 947.136 164.898 946.811C165.081 946.133 165.23 945.277 165.336 944.428C165.443 943.569 165.515 942.649 165.526 941.827C165.536 941.1 165.507 940.18 165.276 939.47C165.134 939.021 164.864 938.647 164.726 938.46C164.537 938.205 164.304 937.929 164.05 937.646C163.538 937.078 162.855 936.387 162.058 935.625C160.459 934.096 158.326 932.205 156.02 930.301C131.175 909.567 115.668 892.325 106.9 875.783L106.899 875.781C101.729 866.054 99.6407 859.94 97.7585 848.709L97.7574 848.703C96.3463 840.46 96.1914 836.919 96.5061 828.484C97.1424 814.728 101.444 778.286 103.818 766.395C109.991 735.725 122.415 707.342 141.677 680.035C153.791 662.908 166.701 648.861 186.667 631.097C207.567 612.582 220.435 598.316 248.829 562.033C283.973 517.184 293.062 507.845 336.011 472.097C365.255 447.773 376.272 437.954 388.177 425.63C405.48 407.739 417.265 391.417 427.668 370.905L427.674 370.894C435.1 356.02 439.138 345.002 444.915 322.747C452.889 292.405 457.764 280.557 467.03 268.159C467.03 268.159 467.031 268.158 467.031 268.157L465.429 266.96L265.928 504.322ZM265.928 504.322C277.515 490.381 303.892 464.368 318.301 452.84C351.666 426.063 369.339 410.594 388.44 391.467C403.462 376.384 413.407 364.926 420.9 353.1C428.381 341.292 433.47 329.033 438.674 312.287C443.424 296.977 446.758 287.283 450.277 279.991C453.832 272.623 457.56 267.737 463.014 261.989L265.928 504.322ZM470.689 260.217C470.688 260.217 470.688 260.217 470.687 260.218C470.69 260.216 470.691 260.215 470.689 260.217ZM90.0307 865.223C90.0308 865.223 90.0265 865.222 90.0182 865.22C90.0265 865.222 90.0306 865.223 90.0307 865.223Z" fill="#111010" stroke="#111010" stroke-width="4"/>
<path d="M825.678 311.057L825.673 311.062C819.298 317.406 815.706 320.369 812.046 321.452C808.456 322.515 804.485 321.854 796.962 319.679C775.336 313.41 758.364 313.266 733.309 319.255C718.992 322.676 711.679 325.898 696.12 335.747C690.815 339.077 683.498 343.009 679.898 344.466L679.887 344.471L679.876 344.475C676.711 345.799 675.057 346.416 673.269 346.743C671.452 347.074 669.423 347.12 665.475 347.12C659.895 347.081 655.824 346.603 650.022 344.609C644.115 342.578 636.422 338.979 623.62 332.609C612.942 327.263 606.576 324.164 602.876 322.649C601.095 321.92 599.666 321.44 598.602 321.378C598.065 321.347 597.206 321.393 596.482 322.001C595.768 322.6 595.594 323.388 595.568 323.924C595.558 323.956 595.541 324.007 595.513 324.08C595.431 324.296 595.295 324.597 595.105 324.969C594.727 325.707 594.191 326.617 593.589 327.522C590.438 332.129 589.209 339.206 589.484 347.338C589.761 355.554 591.583 365.164 594.866 375.107L594.869 375.115L594.872 375.124C596.187 378.994 602.464 393.729 608.763 407.702L608.764 407.705C610.819 412.244 612.619 416.218 614.196 419.699C619.029 430.368 621.762 436.402 623.287 439.841C623.512 440.347 623.709 440.793 623.881 441.187C622.607 440.89 621.059 440.504 619.406 440.067L619.401 440.065C611.023 437.87 602.605 434.65 582.636 425.851C578.828 424.166 575.258 422.639 572.573 421.531C571.232 420.978 570.102 420.525 569.27 420.208C568.856 420.051 568.499 419.92 568.219 419.827C568.081 419.781 567.94 419.736 567.809 419.701L567.8 419.698C567.729 419.679 567.443 419.6 567.127 419.6C565.633 419.6 564.933 420.779 564.71 421.448C564.478 422.145 564.481 422.904 564.589 423.576C564.744 424.666 565.493 425.426 566.095 425.922C566.766 426.474 567.7 427.051 568.887 427.697C571.28 428.998 575.104 430.789 580.922 433.422L580.926 433.424C602.154 442.97 612.371 446.556 626.707 449.477C626.836 449.519 627.225 449.748 628.08 451.125C629.107 452.781 630.536 455.631 632.904 460.614C639.075 473.775 666.099 526.299 671.009 534.764L671.011 534.767C671.796 536.114 672.526 537.405 673.076 538.406C672.542 538.554 671.929 538.705 671.281 538.845L671.258 538.85L671.235 538.855C650.447 543.835 629.531 556.047 610.64 574.156L610.637 574.159C589.752 594.266 575.263 614.05 543.136 666.15L543.134 666.152C533.795 681.341 521.025 701.481 514.809 710.898C493.811 742.68 484.536 760.753 474.96 788.794L474.96 788.795C461.438 828.449 458.136 861.634 463.444 904.404C469.597 954.818 476.815 985.612 487.378 1006.04C489.669 1010.5 492.823 1014.8 496.109 1018.18C499.334 1021.5 502.915 1024.18 506.119 1025.05C513.167 1027.03 521.658 1024.46 528.388 1018.81L528.421 1018.79L528.452 1018.76C529.222 1018.05 529.793 1017.72 530.427 1017.52C531.118 1017.3 532.028 1017.2 533.574 1017.2C545.838 1017.2 560.511 1014.5 582.685 1008.25C599.852 1003.47 615.579 1000.21 632.98 997.823C643.956 996.399 649.772 996.08 670.263 996.08H670.268C684.893 996.04 692.998 996.143 702.426 997.383C711.889 998.628 722.713 1001.02 742.752 1005.63L743.201 1003.68L742.753 1005.63C762.308 1010.12 789.85 1015.09 810.598 1017.9C848.39 1023.04 878.794 1022.1 904.858 1015.05C921.951 1010.43 940.417 1001.27 952.875 991.325C987.301 963.924 1007.46 914.036 1002.11 869.76L1002.11 869.758C998.609 841.088 986.486 821.699 964.673 810.694L964.663 810.689C951.919 804.35 935.167 801.418 919.734 802.808L919.724 802.809C917.415 803.028 915.537 803.236 914.052 803.533C912.588 803.825 911.264 804.246 910.225 805.045C909.098 805.913 908.52 807.055 908.233 808.333C907.966 809.521 907.927 810.934 907.927 812.48C907.927 813.74 908.035 814.998 908.247 816.04C908.353 816.557 908.497 817.082 908.698 817.548C908.857 817.918 909.175 818.548 909.794 818.982C910.165 819.258 910.627 819.459 910.93 819.585C911.35 819.759 911.86 819.942 912.416 820.123C913.53 820.484 914.915 820.862 916.302 821.156L916.309 821.158C923.772 822.715 938.393 828.007 947.892 832.525C972.127 844.147 986.164 858.73 990.674 876.096C992.594 883.599 992.008 893.159 989.049 903.626C986.098 914.067 980.825 925.273 973.542 935.996L973.538 936.001C970.645 940.29 965.353 946.367 959.601 952.207C953.851 958.044 947.778 963.506 943.369 966.604L943.362 966.609C925.037 979.604 906.24 986.948 879.64 991.387L879.636 991.388C872.717 992.556 866.731 992.8 847.215 992.8C821.853 992.8 817.243 992.411 786.004 987.623L786.003 987.623C742.47 980.972 722.873 979.28 687.44 979.28M825.678 311.057L897.52 329.277M825.678 311.057C831.21 305.598 835.823 301.688 841.327 298.271C846.813 294.866 853.115 291.994 861.977 288.541C864.651 287.482 867.641 286.306 870.543 285.165C875.121 283.365 879.477 281.652 882.016 280.626C884.124 279.773 886.156 279.02 887.723 278.487C888.504 278.221 889.188 278.003 889.718 277.855C889.979 277.781 890.231 277.716 890.452 277.672C890.561 277.65 890.692 277.626 890.829 277.612C890.911 277.603 891.183 277.574 891.504 277.631C892.252 277.763 892.699 278.243 892.853 278.419C893.06 278.656 893.214 278.911 893.325 279.116C893.551 279.535 893.754 280.047 893.934 280.571C894.298 281.631 894.656 283.011 894.947 284.461C895.596 287.304 898.54 299.813 901.488 312.34M825.678 311.057L901.488 312.34M687.44 979.28C687.44 979.28 687.439 979.28 687.439 979.28V981.28M687.44 979.28C687.441 979.28 687.442 979.28 687.442 979.28L687.439 981.28M687.44 979.28C644.984 979.2 629.332 981.229 564.953 994.924C552.699 997.531 546.178 998.895 542.602 999.454C540.877 999.724 540.018 999.774 539.589 999.745C538.965 998.988 538.163 998.42 537.029 998.183C535.99 997.965 534.793 998.057 533.45 998.26C528.076 998.983 520.904 997.464 513.111 993.718C500.269 987.517 491.236 976.559 485.7 960.164C481.53 947.635 476.836 923.557 473.244 896.142C467.867 854.803 474.014 819.677 493.988 778.88L493.991 778.872C500.497 765.446 506.523 754.879 525.217 724.079C533.048 711.196 544.955 691.43 551.591 680.221C572.66 644.857 589.285 620.813 606.683 602.518C624.047 584.26 642.242 571.665 666.536 559.303L666.565 559.288C669.751 557.683 672.185 556.457 674.032 555.452C675.869 554.453 677.251 553.607 678.267 552.745C679.313 551.858 679.993 550.936 680.43 549.811C680.636 550.134 680.858 550.49 681.099 550.883L681.106 550.895L681.113 550.907C682.556 553.195 683.816 555.002 684.919 556.18C685.465 556.762 686.083 557.313 686.773 557.66C687.507 558.029 688.499 558.242 689.514 557.781C690.43 557.365 690.957 556.574 691.269 555.925C691.596 555.246 691.828 554.43 692.01 553.552C692.374 551.789 692.61 549.372 692.79 546.36L692.791 546.347C693.116 540.291 692.907 535.825 691.388 531.152C689.886 526.535 687.15 521.857 682.708 515.286C679.057 509.801 673.987 501.468 671.554 496.831L671.551 496.824C656.052 467.543 628.723 416.57 619.606 400.073L619.601 400.063C613.695 389.513 607.744 378.227 606.254 375.01C603.29 368.399 600.806 361.841 599.067 356.173C597.309 350.446 596.369 345.805 596.369 342.96C596.369 341.504 596.58 340.089 596.861 339.061C597.176 339.24 597.537 339.439 597.937 339.654C599.267 340.373 601.111 341.322 603.301 342.422C607.684 344.625 613.507 347.461 619.5 350.325C631.401 356.01 644.205 361.913 647.636 363.089C652.397 364.761 656.58 365.508 662.238 365.837L662.249 365.837L662.26 365.838C668.38 366.124 672.972 365.845 678.203 364.198C683.355 362.576 689.035 359.653 697.383 354.854L697.384 354.854C731.794 335.05 765.462 329.89 794.006 339.574L794.008 339.575C802.955 342.601 809.238 344.021 814.653 342.649C820.148 341.256 824.305 337.112 829.385 330.503C835.524 322.611 843.498 317.337 865.769 307.345L865.776 307.342C874.609 303.339 880.249 300.883 883.87 299.498C885.686 298.803 886.924 298.405 887.768 298.21C888.089 298.136 888.315 298.101 888.465 298.084C888.609 298.303 888.797 298.644 889.027 299.146C889.563 300.315 890.215 302.107 891.011 304.673C892.599 309.789 894.683 317.714 897.518 329.272L897.52 329.277M687.439 981.28C722.749 981.28 742.242 982.96 785.701 989.6L538.127 1001.12C539.006 1002.4 540.923 1002.08 565.369 996.88C629.679 983.2 645.178 981.2 687.439 981.28ZM897.52 329.277L898.108 331.701C901.237 344.585 902.783 350.951 903.559 355.768C904.335 360.585 904.334 363.814 904.333 370.693L904.332 371.6C904.332 386.28 903.324 392.384 899.163 404.805L899.162 404.808C897.967 408.399 897.217 410.981 896.939 412.7C896.807 413.511 896.727 414.414 896.936 415.201C897.051 415.632 897.289 416.173 897.794 416.601C898.325 417.051 898.939 417.2 899.462 417.2C900.349 417.2 900.923 416.662 901.067 416.526C901.303 416.304 901.497 416.049 901.645 415.836C901.949 415.397 902.266 414.826 902.579 414.205C903.215 412.942 903.959 411.219 904.718 409.294C906.238 405.438 907.884 400.6 908.907 396.663L908.91 396.651L908.913 396.639C910.494 390.223 910.729 387.211 910.729 372C910.729 361.901 910.59 355.893 909.347 347.912C908.113 339.994 905.794 330.145 901.488 312.34M897.52 329.277L901.488 312.34" fill="#111010" stroke="#111010" stroke-width="4"/>
<path d="M622.188 377.025C622.471 377.622 622.69 378.36 622.849 379.186C623.022 379.939 623.147 380.878 622.859 381.742C622.693 382.24 622.374 382.757 621.831 383.129C621.3 383.493 620.727 383.6 620.252 383.6C618.851 383.6 617.994 382.653 617.601 381.783C617.24 380.985 617.134 380.034 617.134 379.12C617.134 378.328 617.212 377.538 617.461 376.885C617.583 376.566 617.815 376.093 618.271 375.717C618.814 375.27 619.563 375.063 620.326 375.269C620.964 375.442 621.382 375.843 621.61 376.109C621.858 376.4 622.045 376.724 622.188 377.025ZM619.03 380.622C619.03 380.626 619.03 380.627 619.03 380.627C619.03 380.627 619.03 380.626 619.03 380.622Z" fill="#111010" stroke="#111010" stroke-width="4"/>
<path d="M548.196 460.399C548.196 460.399 548.197 460.398 548.198 460.397C548.196 460.398 548.196 460.399 548.196 460.399ZM623.777 457.547L623.78 457.548C629.173 458.455 632.27 459 633.988 459.543C634.824 459.808 635.72 460.18 636.343 460.902C637.068 461.743 637.112 462.678 637.112 463.2C637.112 463.209 637.112 463.218 637.112 463.227C637.112 463.525 637.114 464.348 636.614 465.068C635.972 465.989 634.989 466.164 634.404 466.197C633.814 466.23 633.116 466.147 632.376 466.031C631.602 465.91 630.617 465.723 629.388 465.485C618.726 463.524 605.313 462.8 576.234 462.8C563.585 462.8 556.093 462.76 551.764 462.599C549.623 462.519 548.142 462.406 547.169 462.227C546.706 462.142 546.167 462.01 545.7 461.749C545.175 461.455 544.436 460.795 544.436 459.68C544.436 458.385 545.328 457.522 545.927 457.102C546.609 456.625 547.465 456.304 548.372 456.182C548.711 456.127 549.21 456.1 549.682 456.08C550.278 456.054 551.068 456.031 552.025 456.012C553.939 455.973 556.558 455.945 559.688 455.93C565.949 455.9 574.286 455.92 583.2 456C608.62 456.16 617.353 456.475 623.777 457.547Z" fill="#111010" stroke="#111010" stroke-width="4"/>
<path d="M621.764 476.54L621.787 476.534L621.81 476.529C622.639 476.342 623.383 476.202 624.033 476.136C624.658 476.073 625.355 476.06 626.015 476.241C626.76 476.446 627.45 476.9 627.882 477.671C628.259 478.345 628.324 479.064 628.324 479.6C628.324 480.544 627.8 481.197 627.379 481.56C626.97 481.912 626.48 482.155 626.032 482.337C625.121 482.707 623.836 483.033 622.193 483.353C618.869 484 613.604 484.708 605.779 485.587C599.527 486.305 592.775 487.183 587.398 487.94C584.709 488.319 582.371 488.667 580.616 488.95C579.737 489.091 579.014 489.214 578.469 489.316C578.197 489.366 577.978 489.41 577.812 489.446C577.729 489.464 577.664 489.479 577.617 489.491C577.598 489.496 577.584 489.499 577.574 489.502C576.61 489.834 575.724 489.559 575.143 489.213C574.553 488.863 574.108 488.36 573.803 487.877C573.497 487.391 573.245 486.786 573.169 486.132C573.094 485.489 573.174 484.555 573.868 483.783L573.903 483.744L573.94 483.707C574.304 483.343 574.749 483.168 574.893 483.112C574.896 483.111 574.899 483.11 574.902 483.109C575.132 483.019 575.389 482.939 575.647 482.868C576.169 482.725 576.848 482.573 577.643 482.416C579.241 482.099 581.439 481.734 584.068 481.342C589.332 480.557 596.409 479.654 604.056 478.812L604.062 478.811C608.165 478.373 612.244 477.894 615.494 477.476C618.814 477.049 621.107 476.704 621.764 476.54Z" fill="#111010" stroke="#111010" stroke-width="4"/>
<path d="M300.503 652.099L300.461 652.106C285.663 654.493 267.39 663.156 251.165 675.362L251.156 675.368C245.134 679.952 234.561 688.454 227.664 694.316L227.658 694.322C222.409 698.822 219.214 701.627 217.34 703.556C215.513 705.436 214.497 706.903 214.497 708.72C214.497 709.441 214.568 710.165 214.681 710.768C214.737 711.068 214.811 711.377 214.907 711.66C214.966 711.833 215.123 712.285 215.473 712.679C215.839 713.101 216.284 713.272 216.559 713.342C216.86 713.418 217.123 713.417 217.283 713.408C217.606 713.39 217.908 713.316 218.125 713.253C218.585 713.121 219.127 712.904 219.682 712.655C220.81 712.149 222.248 711.396 223.723 710.535C235.76 703.75 251.821 695.473 259.636 692.074L259.644 692.07C287.819 679.663 311.542 678.025 333.69 686.585C359.558 696.602 382.269 721.318 389.686 747.418C390.982 752.153 391.37 755.326 391.37 762.4C391.37 766.52 391.287 768.878 390.945 771.025C390.605 773.161 389.997 775.159 388.84 778.555L388.839 778.559C385.736 787.727 380.433 797.302 369.358 813.26L369.353 813.267L369.348 813.274C364.713 820.076 356.716 831.928 351.751 839.546C335.906 863.627 329.169 871.671 315.502 882.683L315.493 882.69C310.315 886.911 305.819 890.826 302.405 894.083C300.698 895.71 299.246 897.189 298.107 898.47C296.995 899.722 296.091 900.886 295.574 901.87C295.064 902.836 294.703 904.227 294.465 905.61C294.217 907.041 294.067 908.667 294.066 910.22C294.027 912.282 294.075 913.831 294.36 915.025C294.689 916.402 295.328 917.299 296.253 918.041L296.289 918.07L296.327 918.097C298.238 919.489 301.081 919.786 303.768 919.553C306.559 919.311 309.644 918.46 312.391 917.063L312.392 917.062L316.351 915.045L331.187 917.649C363.649 923.4 380.071 928.784 393.364 937.814L393.371 937.819C397.794 940.797 402.829 945.666 407.139 950.866C411.469 956.091 414.887 961.436 416.249 965.304L416.253 965.317L416.258 965.331C416.537 966.088 416.71 966.6 416.81 966.988C416.908 967.369 416.905 967.518 416.901 967.562C416.901 967.563 416.901 967.565 416.901 967.566C416.899 967.605 416.893 967.75 416.162 968.685C414.714 970.531 411.907 972.447 407.744 974.196C403.63 975.925 398.386 977.41 392.297 978.512C388.696 979.157 380.655 979.54 371.587 979.6C362.576 979.66 352.759 979.4 345.691 978.808C340.442 978.329 325.38 976.654 312.198 975.134C294.271 972.975 282.948 972.086 272.539 973.13C262.096 974.178 252.683 977.16 238.556 982.53C232.01 985.008 222.188 988.687 216.836 990.686L300.503 652.099ZM300.503 652.099L300.545 652.094M300.503 652.099L300.545 652.094M300.545 652.094C302.071 651.914 307.563 651.841 312.821 652.001M300.545 652.094L333.313 898.423M333.313 898.423C334.735 896.555 337.16 893.392 339.587 890.267L339.594 890.258C346.276 881.551 377.241 835.399 382.798 825.802L382.798 825.802C391.042 811.557 397.114 796.163 400.357 781.224L400.359 781.216L400.361 781.208C401.364 776.396 401.841 768.305 401.831 760.238C401.821 752.16 401.322 743.846 400.285 738.574C394.441 708.663 377.31 681.864 353.744 666.101C339.341 656.404 327.715 652.413 312.821 652.001M333.313 898.423L343.36 898.48C343.362 898.48 343.364 898.48 343.366 898.48C350.685 898.48 355.479 898.639 360.053 899.301C364.636 899.964 368.931 901.122 375.258 903.047L375.261 903.048C399.932 910.599 417.77 928.287 425.318 952.607L425.321 952.617C430.393 969.247 427.179 986.065 416.22 993.417C412.302 996.087 408.98 997.738 403.986 998.732C399.113 999.701 392.669 1000.04 382.544 1000.24L382.543 1000.24C361.554 1000.64 352.26 999.99 315.318 995.505L315.316 995.505C299.26 993.545 289.082 992.58 280.148 992.58C271.248 992.58 263.528 993.539 252.393 995.49L252.392 995.49C237.732 998.05 227.201 999.871 220.195 1001.05C216.693 1001.64 214.064 1002.07 212.238 1002.36C211.326 1002.5 210.604 1002.61 210.07 1002.68C209.597 1002.74 209.13 1002.8 208.828 1002.8C207.523 1002.8 206.638 1001.98 206.201 1001.08C205.816 1000.3 205.71 999.36 205.71 998.48C205.71 997.944 205.714 997.102 206.119 996.267C206.545 995.389 207.26 994.796 208.056 994.317C209.536 993.425 212.229 992.407 216.836 990.687L333.313 898.423ZM312.821 652.001C312.821 652.001 312.822 652.001 312.823 652.001L312.763 654L312.818 652.001C312.819 652.001 312.82 652.001 312.821 652.001Z" fill="#111010" stroke="#111010" stroke-width="4"/>
<path d="M829.046 695.751L829.052 695.741L851.727 667.532C851.727 667.531 851.728 667.531 851.728 667.531L864.188 655.293L867.269 652.267L867.584 656.574L867.823 659.839C867.823 659.841 867.823 659.844 867.823 659.847C867.969 661.661 867.789 663.121 866.791 665.317C865.867 667.352 864.188 670.135 861.376 674.656L861.374 674.66C846.106 699.107 837.747 717.468 832.861 737.436L832.86 737.44C829.234 752.119 828.762 756.196 828.284 780.519L828.284 780.52C827.647 812.248 829.398 834.738 834.397 859.606L834.397 859.608C835.676 866.014 836.968 873.438 837.297 876.16L837.299 876.174L837.301 876.189C837.809 880.979 837.216 887.812 836.16 893.514C835.63 896.378 834.967 899.046 834.227 901.097C833.86 902.116 833.449 903.054 832.987 903.804C832.585 904.457 831.904 905.379 830.832 905.737L830.791 905.751L830.749 905.763C830.066 905.958 829.478 905.787 829.127 905.626C828.778 905.466 828.505 905.249 828.316 905.076C827.935 904.728 827.587 904.278 827.285 903.835C826.663 902.926 825.978 901.67 825.3 900.255C823.935 897.408 822.475 893.661 821.483 890.143L821.483 890.141C817.251 875.064 816.375 864.816 815.098 819.897L815.098 819.894C813.261 751.919 816.657 720.728 829.046 695.751Z" fill="#111010" stroke="#111010" stroke-width="4"/>
</g>
<rect x="0.5" y="0.5" width="1000" height="1023" stroke="#111010"/>
<defs>
<clipPath id="clip0_1_3">
<rect width="1001" height="1024" fill="white"/>
</clipPath>
</defs>
</svg>
