<svg width="35" height="24" viewBox="0 0 35 24" fill="none" xmlns="http://www.w3.org/2000/svg">
<path d="M20.291 14.1761H19.7038L19.4957 13.9754C20.2494 13.1014 20.6636 11.9854 20.6627 10.8313C20.6627 9.87579 20.3793 8.9417 19.8484 8.14719C19.3176 7.35268 18.563 6.73344 17.6802 6.36777C16.7974 6.00209 15.826 5.90642 14.8888 6.09283C13.9516 6.27925 13.0907 6.73939 12.4151 7.41507C11.7394 8.09074 11.2793 8.9516 11.0928 9.88879C10.9064 10.826 11.0021 11.7974 11.3678 12.6802C11.7334 13.563 12.3527 14.3176 13.1472 14.8484C13.9417 15.3793 14.8758 15.6627 15.8313 15.6627C17.028 15.6627 18.1281 15.2241 18.9754 14.4957L19.1761 14.7038V15.291L22.8925 19L24 17.8925L20.291 14.1761ZM15.8313 14.1761C13.9806 14.1761 12.4866 12.6821 12.4866 10.8313C12.4866 8.98056 13.9806 7.48657 15.8313 7.48657C17.6821 7.48657 19.1761 8.98056 19.1761 10.8313C19.1761 12.6821 17.6821 14.1761 15.8313 14.1761Z" fill="#707070"/>
</svg>
