<svg width="24" height="24" viewBox="0 0 24 24" fill="none" xmlns="http://www.w3.org/2000/svg">
<path d="M17.138 4.19526C16.8777 3.93491 16.4556 3.93491 16.1952 4.19526L11.9526 8.43793C11.6922 8.69827 11.6922 9.12033 11.9526 9.38073C12.213 9.64107 12.635 9.64107 12.8954 9.38073L16.6666 5.60947L20.4379 9.38073C20.6982 9.64107 21.1203 9.64107 21.3807 9.38073C21.641 9.12033 21.641 8.69827 21.3807 8.43793L17.138 4.19526ZM17.3333 19.3333V4.66667H16V19.3333H17.3333Z" fill="#696868"/>
<path d="M6.86198 19.8047C7.12231 20.0651 7.54445 20.0651 7.80478 19.8047L12.0474 15.5621C12.3078 15.3017 12.3078 14.8797 12.0474 14.6193C11.787 14.3589 11.365 14.3589 11.1046 14.6193L7.33338 18.3905L3.56215 14.6193C3.30179 14.3589 2.87969 14.3589 2.61933 14.6193C2.35899 14.8797 2.35899 15.3017 2.61933 15.5621L6.86198 19.8047ZM6.66671 4.66666V19.3333H8.00005V4.66666H6.66671Z" fill="#111010"/>
</svg>
