<svg width="24" height="24" viewBox="0 0 24 24" fill="none" xmlns="http://www.w3.org/2000/svg">
<path d="M7.80478 4.19526C7.54445 3.93491 7.12231 3.93491 6.86198 4.19526L2.61933 8.43793C2.35899 8.69827 2.35899 9.12033 2.61933 9.38073C2.87969 9.64107 3.30179 9.64107 3.56215 9.38073L7.33338 5.60947L11.1046 9.38073C11.365 9.64107 11.787 9.64107 12.0474 9.38073C12.3078 9.12033 12.3078 8.69827 12.0474 8.43793L7.80478 4.19526ZM8.00005 19.3333V4.66667H6.66671V19.3333H8.00005Z" fill="#1E1E1E"/>
<path d="M16.1952 19.8047C16.4556 20.0651 16.8777 20.0651 17.138 19.8047L21.3807 15.5621C21.641 15.3017 21.641 14.8797 21.3807 14.6193C21.1203 14.3589 20.6982 14.3589 20.4379 14.6193L16.6666 18.3905L12.8954 14.6193C12.635 14.3589 12.213 14.3589 11.9526 14.6193C11.6922 14.8797 11.6922 15.3017 11.9526 15.5621L16.1952 19.8047ZM16 4.66666V19.3333H17.3333V4.66666H16Z" fill="#696868"/>
</svg>
